<mxfile host="Electron" modified="2023-12-09T11:31:02.394Z" agent="Mozilla/5.0 (Windows NT 10.0; Win64; x64) AppleWebKit/537.36 (KHTML, like Gecko) draw.io/22.1.2 Chrome/114.0.5735.289 Electron/25.9.4 Safari/537.36" etag="zRUCESq_I2hCPCgApGVc" version="22.1.2" type="device">
  <diagram name="Page-1" id="-8MnmQcC3tySjznYTjPD">
    <mxGraphModel dx="863" dy="505" grid="1" gridSize="10" guides="1" tooltips="1" connect="1" arrows="1" fold="1" page="1" pageScale="1" pageWidth="850" pageHeight="1100" math="0" shadow="0">
      <root>
        <mxCell id="0" />
        <mxCell id="1" parent="0" />
        <mxCell id="nNfgDW_oZUpF6-gEMdEF-49" value="" style="rounded=0;whiteSpace=wrap;html=1;fontFamily=Helvetica;fontSize=11;fontColor=default;dashed=1;dashPattern=1 4;" parent="1" vertex="1">
          <mxGeometry x="460" y="370" width="20" height="10" as="geometry" />
        </mxCell>
        <mxCell id="nNfgDW_oZUpF6-gEMdEF-25" value="" style="rounded=0;whiteSpace=wrap;html=1;fontFamily=Helvetica;fontSize=11;fontColor=default;fillColor=none;dashed=1;" parent="1" vertex="1">
          <mxGeometry x="440" y="355" width="51.25" height="40" as="geometry" />
        </mxCell>
        <mxCell id="nNfgDW_oZUpF6-gEMdEF-4" value="VOTOL" style="rounded=0;whiteSpace=wrap;html=1;fontFamily=Helvetica;fontSize=12;fontColor=default;movable=1;resizable=1;rotatable=1;deletable=1;editable=1;locked=0;connectable=1;" parent="1" vertex="1">
          <mxGeometry x="120" y="320" width="157.5" height="120" as="geometry" />
        </mxCell>
        <mxCell id="nNfgDW_oZUpF6-gEMdEF-5" value="B+&lt;br&gt;&lt;br&gt;&lt;br&gt;B-" style="rounded=0;whiteSpace=wrap;html=1;fontFamily=Helvetica;fontSize=12;fontColor=default;fillColor=none;movable=1;resizable=1;rotatable=1;deletable=1;editable=1;locked=0;connectable=1;" parent="1" vertex="1">
          <mxGeometry x="257.5" y="330" width="20" height="90" as="geometry" />
        </mxCell>
        <mxCell id="nNfgDW_oZUpF6-gEMdEF-22" style="edgeStyle=orthogonalEdgeStyle;shape=connector;rounded=0;orthogonalLoop=1;jettySize=auto;html=1;exitX=0.25;exitY=1;exitDx=0;exitDy=0;labelBackgroundColor=default;strokeColor=default;align=center;verticalAlign=middle;fontFamily=Helvetica;fontSize=11;fontColor=default;endArrow=classicThin;endFill=1;" parent="1" source="nNfgDW_oZUpF6-gEMdEF-6" edge="1">
          <mxGeometry relative="1" as="geometry">
            <mxPoint x="173.71428571428567" y="480" as="targetPoint" />
          </mxGeometry>
        </mxCell>
        <mxCell id="nNfgDW_oZUpF6-gEMdEF-23" style="edgeStyle=orthogonalEdgeStyle;shape=connector;rounded=0;orthogonalLoop=1;jettySize=auto;html=1;exitX=0.5;exitY=1;exitDx=0;exitDy=0;labelBackgroundColor=default;strokeColor=default;align=center;verticalAlign=middle;fontFamily=Helvetica;fontSize=11;fontColor=default;endArrow=classicThin;endFill=1;" parent="1" source="nNfgDW_oZUpF6-gEMdEF-6" edge="1">
          <mxGeometry relative="1" as="geometry">
            <mxPoint x="198.8571428571429" y="480" as="targetPoint" />
          </mxGeometry>
        </mxCell>
        <mxCell id="nNfgDW_oZUpF6-gEMdEF-24" style="edgeStyle=orthogonalEdgeStyle;shape=connector;rounded=0;orthogonalLoop=1;jettySize=auto;html=1;exitX=0.75;exitY=1;exitDx=0;exitDy=0;labelBackgroundColor=default;strokeColor=default;align=center;verticalAlign=middle;fontFamily=Helvetica;fontSize=11;fontColor=default;endArrow=classicThin;endFill=1;" parent="1" source="nNfgDW_oZUpF6-gEMdEF-6" edge="1">
          <mxGeometry relative="1" as="geometry">
            <mxPoint x="224" y="480" as="targetPoint" />
          </mxGeometry>
        </mxCell>
        <mxCell id="nNfgDW_oZUpF6-gEMdEF-6" value="&lt;font style=&quot;font-size: 8px;&quot;&gt;MOTOR OUT&lt;/font&gt;" style="rounded=0;whiteSpace=wrap;html=1;fontFamily=Helvetica;fontSize=12;fontColor=default;fillColor=none;movable=1;resizable=1;rotatable=1;deletable=1;editable=1;locked=0;connectable=1;" parent="1" vertex="1">
          <mxGeometry x="148.75" y="420" width="100" height="20" as="geometry" />
        </mxCell>
        <mxCell id="nNfgDW_oZUpF6-gEMdEF-9" value="High Brake" style="rounded=0;whiteSpace=wrap;html=1;" parent="1" vertex="1">
          <mxGeometry x="167.5" y="320" width="70" height="20" as="geometry" />
        </mxCell>
        <mxCell id="nNfgDW_oZUpF6-gEMdEF-14" style="edgeStyle=orthogonalEdgeStyle;shape=connector;rounded=0;orthogonalLoop=1;jettySize=auto;html=1;entryX=1;entryY=0.25;entryDx=0;entryDy=0;labelBackgroundColor=default;strokeColor=default;align=center;verticalAlign=middle;fontFamily=Helvetica;fontSize=11;fontColor=default;endArrow=none;endFill=0;" parent="1" source="nNfgDW_oZUpF6-gEMdEF-10" target="nNfgDW_oZUpF6-gEMdEF-5" edge="1">
          <mxGeometry relative="1" as="geometry">
            <Array as="points">
              <mxPoint x="278" y="345" />
              <mxPoint x="278" y="350" />
              <mxPoint x="278" y="350" />
            </Array>
          </mxGeometry>
        </mxCell>
        <mxCell id="nNfgDW_oZUpF6-gEMdEF-15" value="" style="edgeStyle=orthogonalEdgeStyle;shape=connector;rounded=0;orthogonalLoop=1;jettySize=auto;html=1;labelBackgroundColor=default;strokeColor=default;align=center;verticalAlign=middle;fontFamily=Helvetica;fontSize=11;fontColor=default;endArrow=none;endFill=0;" parent="1" source="nNfgDW_oZUpF6-gEMdEF-10" target="nNfgDW_oZUpF6-gEMdEF-11" edge="1">
          <mxGeometry relative="1" as="geometry" />
        </mxCell>
        <mxCell id="nNfgDW_oZUpF6-gEMdEF-10" value="4R" style="pointerEvents=1;verticalLabelPosition=bottom;shadow=0;dashed=0;align=center;html=1;verticalAlign=top;shape=mxgraph.electrical.resistors.resistor_2;rotation=0;" parent="1" vertex="1">
          <mxGeometry x="310" y="340" width="60" height="10" as="geometry" />
        </mxCell>
        <mxCell id="nNfgDW_oZUpF6-gEMdEF-19" style="edgeStyle=orthogonalEdgeStyle;shape=connector;rounded=0;orthogonalLoop=1;jettySize=auto;html=1;exitX=1;exitY=0.5;exitDx=0;exitDy=0;exitPerimeter=0;entryX=0;entryY=0.8;entryDx=0;entryDy=0;labelBackgroundColor=default;strokeColor=default;align=center;verticalAlign=middle;fontFamily=Helvetica;fontSize=11;fontColor=default;endArrow=none;endFill=0;" parent="1" source="nNfgDW_oZUpF6-gEMdEF-11" edge="1">
          <mxGeometry relative="1" as="geometry">
            <mxPoint x="455.75" y="356.25" as="targetPoint" />
          </mxGeometry>
        </mxCell>
        <mxCell id="nNfgDW_oZUpF6-gEMdEF-11" value="R" style="pointerEvents=1;verticalLabelPosition=bottom;shadow=0;dashed=0;align=center;html=1;verticalAlign=top;shape=mxgraph.electrical.resistors.resistor_2;rotation=0;" parent="1" vertex="1">
          <mxGeometry x="390" y="340" width="60" height="10" as="geometry" />
        </mxCell>
        <mxCell id="nNfgDW_oZUpF6-gEMdEF-16" style="edgeStyle=orthogonalEdgeStyle;shape=connector;rounded=0;orthogonalLoop=1;jettySize=auto;html=1;entryX=0;entryY=0.5;entryDx=0;entryDy=0;entryPerimeter=0;labelBackgroundColor=default;strokeColor=default;align=center;verticalAlign=middle;fontFamily=Helvetica;fontSize=11;fontColor=default;endArrow=none;endFill=0;" parent="1" source="nNfgDW_oZUpF6-gEMdEF-9" target="nNfgDW_oZUpF6-gEMdEF-11" edge="1">
          <mxGeometry relative="1" as="geometry">
            <Array as="points">
              <mxPoint x="203" y="300" />
              <mxPoint x="390" y="300" />
            </Array>
          </mxGeometry>
        </mxCell>
        <mxCell id="nNfgDW_oZUpF6-gEMdEF-20" style="edgeStyle=orthogonalEdgeStyle;shape=connector;rounded=0;orthogonalLoop=1;jettySize=auto;html=1;exitX=1;exitY=0.8;exitDx=0;exitDy=0;entryX=0.976;entryY=0.881;entryDx=0;entryDy=0;labelBackgroundColor=default;strokeColor=default;align=center;verticalAlign=middle;fontFamily=Helvetica;fontSize=11;fontColor=default;endArrow=none;endFill=0;entryPerimeter=0;" parent="1" target="nNfgDW_oZUpF6-gEMdEF-5" edge="1">
          <mxGeometry relative="1" as="geometry">
            <Array as="points">
              <mxPoint x="456" y="414" />
              <mxPoint x="277" y="414" />
            </Array>
            <mxPoint x="455.75" y="393.75" as="sourcePoint" />
          </mxGeometry>
        </mxCell>
        <mxCell id="nNfgDW_oZUpF6-gEMdEF-37" style="edgeStyle=orthogonalEdgeStyle;shape=connector;rounded=0;orthogonalLoop=1;jettySize=auto;html=1;exitX=0;exitY=0.8;exitDx=0;exitDy=0;entryX=0;entryY=0.5;entryDx=0;entryDy=0;labelBackgroundColor=default;strokeColor=default;align=center;verticalAlign=middle;fontFamily=Helvetica;fontSize=11;fontColor=default;endArrow=none;endFill=0;" parent="1" target="nNfgDW_oZUpF6-gEMdEF-26" edge="1">
          <mxGeometry relative="1" as="geometry">
            <mxPoint x="475.75" y="356.25" as="sourcePoint" />
            <Array as="points">
              <mxPoint x="476" y="325" />
            </Array>
          </mxGeometry>
        </mxCell>
        <mxCell id="nNfgDW_oZUpF6-gEMdEF-26" value="Brake Light" style="rounded=0;whiteSpace=wrap;html=1;fontFamily=Helvetica;fontSize=11;fontColor=default;" parent="1" vertex="1">
          <mxGeometry x="550" y="310" width="80" height="30" as="geometry" />
        </mxCell>
        <mxCell id="nNfgDW_oZUpF6-gEMdEF-27" value="" style="group;movable=1;resizable=1;rotatable=1;deletable=1;editable=1;locked=0;connectable=1;flipH=1;" parent="1" vertex="1" connectable="0">
          <mxGeometry x="520" y="410" width="120" height="90" as="geometry" />
        </mxCell>
        <mxCell id="nNfgDW_oZUpF6-gEMdEF-28" value="" style="rounded=0;whiteSpace=wrap;html=1;movable=1;resizable=1;rotatable=1;deletable=1;editable=1;locked=0;connectable=1;" parent="nNfgDW_oZUpF6-gEMdEF-27" vertex="1">
          <mxGeometry y="30" width="120" height="60" as="geometry" />
        </mxCell>
        <mxCell id="nNfgDW_oZUpF6-gEMdEF-29" value="" style="whiteSpace=wrap;html=1;aspect=fixed;movable=1;resizable=1;rotatable=1;deletable=1;editable=1;locked=0;connectable=1;" parent="nNfgDW_oZUpF6-gEMdEF-27" vertex="1">
          <mxGeometry x="10" y="10" width="20" height="20" as="geometry" />
        </mxCell>
        <mxCell id="nNfgDW_oZUpF6-gEMdEF-30" value="" style="whiteSpace=wrap;html=1;aspect=fixed;movable=1;resizable=1;rotatable=1;deletable=1;editable=1;locked=0;connectable=1;" parent="nNfgDW_oZUpF6-gEMdEF-27" vertex="1">
          <mxGeometry x="90" y="10" width="20" height="20" as="geometry" />
        </mxCell>
        <mxCell id="nNfgDW_oZUpF6-gEMdEF-31" value="12V 9Ah" style="rounded=0;whiteSpace=wrap;html=1;movable=1;resizable=1;rotatable=1;deletable=1;editable=1;locked=0;connectable=1;" parent="nNfgDW_oZUpF6-gEMdEF-27" vertex="1">
          <mxGeometry y="20" width="120" height="10" as="geometry" />
        </mxCell>
        <mxCell id="nNfgDW_oZUpF6-gEMdEF-32" value="-" style="rounded=0;whiteSpace=wrap;html=1;movable=1;resizable=1;rotatable=1;deletable=1;editable=1;locked=0;connectable=1;" parent="nNfgDW_oZUpF6-gEMdEF-27" vertex="1">
          <mxGeometry x="15" width="10" height="10" as="geometry" />
        </mxCell>
        <mxCell id="nNfgDW_oZUpF6-gEMdEF-33" value="+" style="rounded=0;whiteSpace=wrap;html=1;movable=1;resizable=1;rotatable=1;deletable=1;editable=1;locked=0;connectable=1;" parent="nNfgDW_oZUpF6-gEMdEF-27" vertex="1">
          <mxGeometry x="95" width="10" height="10" as="geometry" />
        </mxCell>
        <mxCell id="nNfgDW_oZUpF6-gEMdEF-34" value="" style="shape=image;html=1;verticalAlign=top;verticalLabelPosition=bottom;labelBackgroundColor=#ffffff;imageAspect=0;aspect=fixed;image=https://cdn3.iconfinder.com/data/icons/energy-and-power-glyph-24-px/24/Bolt_flashlight_lightning_power_thunder-128.png;movable=1;resizable=1;rotatable=1;deletable=1;editable=1;locked=0;connectable=1;" parent="nNfgDW_oZUpF6-gEMdEF-27" vertex="1">
          <mxGeometry x="40" y="40" width="40" height="40" as="geometry" />
        </mxCell>
        <mxCell id="nNfgDW_oZUpF6-gEMdEF-35" style="edgeStyle=orthogonalEdgeStyle;shape=connector;rounded=0;orthogonalLoop=1;jettySize=auto;html=1;exitX=0;exitY=0.5;exitDx=0;exitDy=0;entryX=1;entryY=0.8;entryDx=0;entryDy=0;labelBackgroundColor=default;strokeColor=default;align=center;verticalAlign=middle;fontFamily=Helvetica;fontSize=11;fontColor=default;endArrow=none;endFill=0;" parent="1" source="nNfgDW_oZUpF6-gEMdEF-32" edge="1">
          <mxGeometry relative="1" as="geometry">
            <mxPoint x="475.75" y="393.75" as="targetPoint" />
          </mxGeometry>
        </mxCell>
        <mxCell id="nNfgDW_oZUpF6-gEMdEF-45" value="" style="edgeStyle=orthogonalEdgeStyle;shape=connector;rounded=0;orthogonalLoop=1;jettySize=auto;html=1;exitX=1;exitY=0.5;exitDx=0;exitDy=0;entryX=1;entryY=0.5;entryDx=0;entryDy=0;labelBackgroundColor=default;strokeColor=default;align=center;verticalAlign=middle;fontFamily=Helvetica;fontSize=11;fontColor=default;endArrow=none;endFill=0;" parent="1" source="nNfgDW_oZUpF6-gEMdEF-26" target="nNfgDW_oZUpF6-gEMdEF-44" edge="1">
          <mxGeometry relative="1" as="geometry">
            <mxPoint x="630" y="325" as="sourcePoint" />
            <mxPoint x="625" y="415" as="targetPoint" />
            <Array as="points" />
          </mxGeometry>
        </mxCell>
        <mxCell id="nNfgDW_oZUpF6-gEMdEF-46" style="edgeStyle=orthogonalEdgeStyle;shape=connector;rounded=0;orthogonalLoop=1;jettySize=auto;html=1;exitX=0;exitY=0.5;exitDx=0;exitDy=0;exitPerimeter=0;entryX=1;entryY=0.5;entryDx=0;entryDy=0;labelBackgroundColor=default;strokeColor=default;align=center;verticalAlign=middle;fontFamily=Helvetica;fontSize=11;fontColor=default;endArrow=none;endFill=0;" parent="1" source="nNfgDW_oZUpF6-gEMdEF-44" target="nNfgDW_oZUpF6-gEMdEF-33" edge="1">
          <mxGeometry relative="1" as="geometry" />
        </mxCell>
        <mxCell id="nNfgDW_oZUpF6-gEMdEF-47" style="edgeStyle=orthogonalEdgeStyle;shape=connector;rounded=0;orthogonalLoop=1;jettySize=auto;html=1;exitX=1;exitY=0.5;exitDx=0;exitDy=0;exitPerimeter=0;entryX=1;entryY=0.5;entryDx=0;entryDy=0;labelBackgroundColor=default;strokeColor=default;align=center;verticalAlign=middle;fontFamily=Helvetica;fontSize=11;fontColor=default;endArrow=none;endFill=0;" parent="1" source="nNfgDW_oZUpF6-gEMdEF-44" target="nNfgDW_oZUpF6-gEMdEF-26" edge="1">
          <mxGeometry relative="1" as="geometry" />
        </mxCell>
        <mxCell id="nNfgDW_oZUpF6-gEMdEF-44" value="" style="pointerEvents=1;verticalLabelPosition=bottom;shadow=0;dashed=0;align=center;html=1;verticalAlign=top;shape=mxgraph.electrical.miscellaneous.fuse_1;fontFamily=Helvetica;fontSize=11;fontColor=default;rotation=-90;" parent="1" vertex="1">
          <mxGeometry x="670" y="370" width="40" height="10" as="geometry" />
        </mxCell>
        <mxCell id="nNfgDW_oZUpF6-gEMdEF-50" value="Brake Switch" style="text;html=1;strokeColor=none;fillColor=none;align=center;verticalAlign=middle;whiteSpace=wrap;rounded=0;fontSize=11;fontFamily=Helvetica;fontColor=default;" parent="1" vertex="1">
          <mxGeometry x="500" y="365" width="20" height="20" as="geometry" />
        </mxCell>
        <mxCell id="nNfgDW_oZUpF6-gEMdEF-51" value="&lt;font style=&quot;font-size: 10px;&quot;&gt;15A&lt;br&gt;FUSE&lt;/font&gt;" style="text;html=1;strokeColor=none;fillColor=none;align=center;verticalAlign=middle;whiteSpace=wrap;rounded=0;fontSize=11;fontFamily=Helvetica;fontColor=default;" parent="1" vertex="1">
          <mxGeometry x="650" y="365" width="30" height="20" as="geometry" />
        </mxCell>
        <mxCell id="nNfgDW_oZUpF6-gEMdEF-54" value="" style="rounded=0;whiteSpace=wrap;html=1;fontFamily=Helvetica;fontSize=11;fontColor=default;fillColor=none;" parent="1" vertex="1">
          <mxGeometry x="80" y="210" width="640" height="360" as="geometry" />
        </mxCell>
        <mxCell id="0w5IAAII4TkXXDuICmkM-1" value="" style="html=1;shape=mxgraph.electrical.electro-mechanical.pushbutton;aspect=fixed;elSwitchState=off;rotation=90;" vertex="1" parent="1">
          <mxGeometry x="440" y="370" width="37.5" height="10" as="geometry" />
        </mxCell>
        <mxCell id="0w5IAAII4TkXXDuICmkM-2" value="" style="html=1;shape=mxgraph.electrical.electro-mechanical.pushbutton;aspect=fixed;elSwitchState=off;rotation=90;" vertex="1" parent="1">
          <mxGeometry x="460" y="370" width="37.5" height="10" as="geometry" />
        </mxCell>
      </root>
    </mxGraphModel>
  </diagram>
</mxfile>
